<svg xmlns="http://www.w3.org/2000/svg" width="1147.232" height="300" overflow="visible" xml:space="preserve"><path fill="#303F9F" d="M300 260c0 22-18 40-40 40H40c-22 0-40-18-40-40V40C0 18 18 0 40 0h220c22 0 40 18 40 40v220z"/><g fill="#303F9F"><path d="m352.25 127.4 42-105.9h21.301L457.1 127.4h-24.9l-31.8-87.9h8.549l-32.25 87.9H352.25zm23.85-19.199V89h57.75v19.201H376.1zM467.448 127.4V54.5h22.951v72.9h-22.951zm22.951-40.05-9.602-7.5c1.9-8.5 5.102-15.1 9.602-19.799S501.149 53 509.149 53c3.5 0 6.574.525 9.225 1.576 2.648 1.051 4.975 2.676 6.975 4.875l-13.65 17.25c-1-1.1-2.25-1.949-3.75-2.551-1.5-.6-3.201-.9-5.1-.9-3.801 0-6.824 1.176-9.074 3.525-2.251 2.352-3.376 5.875-3.376 10.575zM564.497 128.9c-6.701 0-12.676-1.648-17.926-4.949s-9.4-7.801-12.451-13.5-4.574-12.199-4.574-19.5 1.523-13.801 4.574-19.5 7.201-10.199 12.451-13.5S557.795 53 564.497 53c4.898 0 9.324.951 13.273 2.852s7.176 4.525 9.676 7.875 3.898 7.174 4.199 11.475v31.5c-.301 4.301-1.676 8.125-4.125 11.475-2.449 3.352-5.674 5.977-9.674 7.875s-8.451 2.848-13.349 2.848zm4.648-20.699c4.9 0 8.851-1.625 11.851-4.875s4.5-7.375 4.5-12.375c0-3.4-.676-6.4-2.025-9-1.352-2.6-3.252-4.625-5.701-6.074s-5.275-2.176-8.474-2.176-6.025.727-8.475 2.176c-2.451 1.449-4.402 3.475-5.852 6.074s-2.174 5.6-2.174 9c0 3.301.699 6.25 2.1 8.85 1.4 2.602 3.352 4.65 5.852 6.15s5.298 2.25 8.398 2.25zm15.451 19.199v-19.65l3.449-17.699-3.449-17.701V54.5h22.5v72.9h-22.5zM623.293 127.4V18.5h22.951v108.9h-22.951zm46.65 0-25.5-37.801 25.35-35.1h25.65l-30.6 39.451.75-9.451 31.35 42.9h-27zM735.643 128.9c-6.701 0-12.676-1.648-17.926-4.949s-9.4-7.801-12.451-13.5-4.574-12.199-4.574-19.5 1.523-13.801 4.574-19.5 7.201-10.199 12.451-13.5S728.941 53 735.643 53c4.898 0 9.324.951 13.273 2.852s7.176 4.525 9.676 7.875 3.898 7.174 4.199 11.475v31.5c-.301 4.301-1.676 8.125-4.125 11.475-2.449 3.352-5.674 5.977-9.674 7.875s-8.451 2.848-13.349 2.848zm4.648-20.699c4.9 0 8.852-1.625 11.852-4.875s4.5-7.375 4.5-12.375c0-3.4-.676-6.4-2.025-9-1.352-2.6-3.252-4.625-5.701-6.074s-5.275-2.176-8.475-2.176-6.025.727-8.475 2.176c-2.451 1.449-4.402 3.475-5.852 6.074s-2.174 5.6-2.174 9c0 3.301.699 6.25 2.1 8.85 1.4 2.602 3.352 4.65 5.852 6.15s5.298 2.25 8.398 2.25zm15.451 19.199v-19.65l3.449-17.699-3.449-17.701V54.5h22.5v72.9h-22.5zM812.289 127.4 787.09 54.5h22.5l15.6 52.951-6.6.148 17.25-53.1h18.6l17.4 53.1-6.75-.148L880.84 54.5h22.5l-25.199 72.9h-18.75L842.439 77h5.701l-17.25 50.4h-18.601zM942.639 128.9c-6.701 0-12.676-1.648-17.926-4.949s-9.4-7.801-12.451-13.5-4.574-12.199-4.574-19.5 1.523-13.801 4.574-19.5 7.201-10.199 12.451-13.5S935.938 53 942.639 53c4.898 0 9.324.951 13.273 2.852s7.176 4.525 9.676 7.875 3.898 7.174 4.199 11.475v31.5c-.301 4.301-1.676 8.125-4.125 11.475-2.449 3.352-5.674 5.977-9.674 7.875s-8.451 2.848-13.349 2.848zm4.648-20.699c4.9 0 8.852-1.625 11.852-4.875s4.5-7.375 4.5-12.375c0-3.4-.676-6.4-2.025-9-1.352-2.6-3.252-4.625-5.701-6.074s-5.275-2.176-8.475-2.176-6.025.727-8.475 2.176c-2.451 1.449-4.402 3.475-5.852 6.074s-2.174 5.6-2.174 9c0 3.301.699 6.25 2.1 8.85 1.4 2.602 3.352 4.65 5.852 6.15s5.299 2.25 8.398 2.25zm15.451 19.199v-19.65l3.449-17.699-3.449-17.701V54.5h22.5v72.9h-22.5zM360.199 267.4V161.5h23.551v105.9h-23.551zm18.151 0v-20.699h52.35V267.4h-52.35zM472.699 268.9c-6.701 0-12.676-1.648-17.926-4.949s-9.4-7.801-12.451-13.5-4.574-12.199-4.574-19.5 1.523-13.801 4.574-19.5 7.201-10.199 12.451-13.5S465.998 193 472.699 193c4.898 0 9.324.951 13.273 2.852s7.176 4.525 9.676 7.875 3.898 7.174 4.199 11.475v31.5c-.301 4.301-1.676 8.125-4.125 11.475-2.449 3.352-5.674 5.977-9.674 7.875s-8.45 2.848-13.349 2.848zm4.649-20.699c4.9 0 8.852-1.625 11.852-4.875s4.5-7.375 4.5-12.375c0-3.4-.676-6.4-2.025-9-1.352-2.6-3.252-4.625-5.701-6.074s-5.275-2.176-8.475-2.176-6.025.727-8.475 2.176c-2.451 1.449-4.402 3.475-5.852 6.074s-2.174 5.6-2.174 9c0 3.301.699 6.25 2.1 8.85 1.4 2.602 3.352 4.65 5.852 6.15s5.298 2.25 8.398 2.25zm15.451 19.199v-19.65l3.449-17.699-3.449-17.701V194.5h22.5v72.9h-22.5zM531.496 267.4V158.5h22.951v53.85l-3.75 17.701 3.449 17.699v19.65h-22.65zm42 1.5c-4.9 0-9.4-1.025-13.5-3.074-4.102-2.051-7.451-4.801-10.051-8.25s-4.1-7.324-4.498-11.625v-30.75c.398-4.301 1.898-8.125 4.498-11.475s5.949-5.975 10.051-7.875c4.1-1.9 8.6-2.852 13.5-2.852 6.898 0 13.023 1.65 18.375 4.951 5.35 3.301 9.549 7.801 12.6 13.5s4.576 12.199 4.576 19.5-1.525 13.801-4.576 19.5-7.25 10.199-12.6 13.5c-5.351 3.302-11.476 4.95-18.375 4.95zm-4.049-20.699c3.199 0 6.023-.75 8.473-2.25s4.375-3.549 5.775-6.15c1.4-2.6 2.102-5.549 2.102-8.85 0-3.4-.701-6.4-2.102-9s-3.326-4.625-5.775-6.074-5.273-2.176-8.473-2.176c-3.201 0-6.051.727-8.551 2.176s-4.426 3.475-5.775 6.074c-1.352 2.6-2.025 5.6-2.025 9s.699 6.4 2.1 9 3.326 4.625 5.775 6.074c2.449 1.452 5.275 2.176 8.476 2.176zM655.844 269.051c-7.5 0-14.275-1.674-20.324-5.025-6.051-3.35-10.824-7.924-14.324-13.725s-5.25-12.301-5.25-19.5 1.75-13.65 5.25-19.35 8.25-10.225 14.25-13.576c6-3.35 12.799-5.025 20.398-5.025s14.4 1.65 20.4 4.951 10.75 7.824 14.25 13.574 5.25 12.227 5.25 19.426-1.75 13.699-5.25 19.5-8.25 10.375-14.25 13.725c-6 3.351-12.801 5.025-20.4 5.025zm0-20.85c3.301 0 6.201-.725 8.701-2.176 2.5-1.449 4.424-3.5 5.773-6.15 1.35-2.648 2.025-5.674 2.025-9.074 0-3.398-.701-6.373-2.1-8.924-1.4-2.551-3.326-4.551-5.775-6s-5.324-2.176-8.625-2.176c-3.199 0-6.049.727-8.549 2.176s-4.451 3.475-5.852 6.074-2.1 5.6-2.1 9c0 3.301.699 6.275 2.1 8.924 1.4 2.65 3.352 4.701 5.852 6.15 2.501 1.452 5.351 2.176 8.55 2.176zM707.143 267.4v-72.9h22.951v72.9h-22.951zm22.951-40.05-9.602-7.5c1.9-8.5 5.102-15.1 9.602-19.799s10.75-7.051 18.75-7.051c3.5 0 6.574.525 9.225 1.576 2.648 1.051 4.975 2.676 6.975 4.875l-13.65 17.25c-1-1.1-2.25-1.949-3.75-2.551-1.5-.6-3.201-.9-5.1-.9-3.801 0-6.824 1.176-9.074 3.525-2.251 2.352-3.376 5.875-3.376 10.575zM804.191 268.9c-6.701 0-12.676-1.648-17.926-4.949s-9.4-7.801-12.451-13.5-4.574-12.199-4.574-19.5 1.523-13.801 4.574-19.5 7.201-10.199 12.451-13.5S797.49 193 804.191 193c4.898 0 9.324.951 13.273 2.852s7.176 4.525 9.676 7.875 3.898 7.174 4.199 11.475v31.5c-.301 4.301-1.676 8.125-4.125 11.475-2.449 3.352-5.674 5.977-9.674 7.875s-8.45 2.848-13.349 2.848zm4.649-20.699c4.9 0 8.852-1.625 11.852-4.875s4.5-7.375 4.5-12.375c0-3.4-.676-6.4-2.025-9-1.352-2.6-3.252-4.625-5.701-6.074s-5.275-2.176-8.475-2.176-6.025.727-8.475 2.176c-2.451 1.449-4.402 3.475-5.852 6.074s-2.174 5.6-2.174 9c0 3.301.699 6.25 2.1 8.85 1.4 2.602 3.352 4.65 5.852 6.15s5.298 2.25 8.398 2.25zm15.451 19.199v-19.65l3.449-17.699-3.449-17.701V194.5h22.5v72.9h-22.5zM856.838 214v-19.5h55.951V214h-55.951zm16.5 53.4V164.35h22.951V267.4h-22.951zM957.936 269.051c-7.5 0-14.275-1.674-20.324-5.025-6.051-3.35-10.824-7.924-14.324-13.725s-5.25-12.301-5.25-19.5 1.75-13.65 5.25-19.35 8.25-10.225 14.25-13.576c6-3.35 12.799-5.025 20.398-5.025s14.4 1.65 20.4 4.951 10.75 7.824 14.25 13.574 5.25 12.227 5.25 19.426-1.75 13.699-5.25 19.5-8.25 10.375-14.25 13.725c-6 3.351-12.801 5.025-20.4 5.025zm0-20.85c3.301 0 6.201-.725 8.701-2.176 2.5-1.449 4.424-3.5 5.773-6.15 1.35-2.648 2.025-5.674 2.025-9.074 0-3.398-.701-6.373-2.1-8.924-1.4-2.551-3.326-4.551-5.775-6s-5.324-2.176-8.625-2.176c-3.199 0-6.049.727-8.549 2.176s-4.451 3.475-5.852 6.074-2.1 5.6-2.1 9c0 3.301.699 6.275 2.1 8.924 1.4 2.65 3.352 4.701 5.852 6.15 2.501 1.452 5.35 2.176 8.55 2.176zM1009.234 267.4v-72.9h22.951v72.9h-22.951zm22.952-40.05-9.602-7.5c1.9-8.5 5.102-15.1 9.602-19.799s10.75-7.051 18.75-7.051c3.5 0 6.574.525 9.225 1.576 2.648 1.051 4.975 2.676 6.975 4.875l-13.65 17.25c-1-1.1-2.25-1.949-3.75-2.551-1.5-.6-3.201-.9-5.1-.9-3.801 0-6.824 1.176-9.074 3.525-2.251 2.352-3.376 5.875-3.376 10.575zM1098.332 267.701l-30-73.201h24.75l19.051 58.051h-9.15l19.5-58.051h24.75l-31.199 73.201h-17.702zm-18.75 30.449 21.9-47.25 14.551 16.801-12.9 30.449h-23.551z"/></g><path fill="#FFF" d="M169.633 240.302c-.94 2.584-3.96 4.698-6.71 4.698h-95c-2.75 0-4.23-2.114-3.29-4.698l65.734-180.604c.94-2.584 3.96-4.698 6.71-4.698h95c2.75 0 4.23 2.114 3.29 4.698l-65.734 180.604z"/><path fill="#303F9F" d="M202.872 245.302c-.94 2.584-3.96 4.698-6.71 4.698h-70c-2.75 0-4.23-2.114-3.29-4.698l40.257-110.604c.94-2.584 3.96-4.698 6.71-4.698h70c2.75 0 4.23 2.114 3.29 4.698l-40.257 110.604z"/></svg>